<mxfile host="app.diagrams.net" modified="2024-01-17T03:20:15.636Z" agent="Mozilla/5.0 (Windows NT 10.0; Win64; x64) AppleWebKit/537.36 (KHTML, like Gecko) Chrome/120.0.0.0 Safari/537.36" etag="8RG-9jA0id3oCRgJ8vrM" version="22.1.20" type="github">
  <diagram name="第 1 页" id="PHRcX81Bvdua13McCrMG">
    <mxGraphModel dx="2501" dy="746" grid="1" gridSize="10" guides="1" tooltips="1" connect="1" arrows="1" fold="1" page="1" pageScale="1" pageWidth="827" pageHeight="1169" math="0" shadow="0">
      <root>
        <mxCell id="0" />
        <mxCell id="1" parent="0" />
        <mxCell id="4suOuSQ61Tq4zbovz8dJ-3" value="" style="edgeStyle=orthogonalEdgeStyle;rounded=0;orthogonalLoop=1;jettySize=auto;html=1;" edge="1" parent="1" source="4suOuSQ61Tq4zbovz8dJ-1" target="4suOuSQ61Tq4zbovz8dJ-2">
          <mxGeometry relative="1" as="geometry" />
        </mxCell>
        <mxCell id="4suOuSQ61Tq4zbovz8dJ-13" value="班次时间段+产线？" style="edgeLabel;html=1;align=center;verticalAlign=middle;resizable=0;points=[];" vertex="1" connectable="0" parent="4suOuSQ61Tq4zbovz8dJ-3">
          <mxGeometry x="-0.175" relative="1" as="geometry">
            <mxPoint as="offset" />
          </mxGeometry>
        </mxCell>
        <mxCell id="4suOuSQ61Tq4zbovz8dJ-1" value="根据产线查班次时间段" style="rounded=0;whiteSpace=wrap;html=1;" vertex="1" parent="1">
          <mxGeometry x="210" y="80" width="150" height="60" as="geometry" />
        </mxCell>
        <mxCell id="4suOuSQ61Tq4zbovz8dJ-8" value="" style="edgeStyle=orthogonalEdgeStyle;rounded=0;orthogonalLoop=1;jettySize=auto;html=1;" edge="1" parent="1" source="4suOuSQ61Tq4zbovz8dJ-2" target="4suOuSQ61Tq4zbovz8dJ-7">
          <mxGeometry relative="1" as="geometry" />
        </mxCell>
        <mxCell id="4suOuSQ61Tq4zbovz8dJ-12" value="工单+产线" style="edgeLabel;html=1;align=center;verticalAlign=middle;resizable=0;points=[];" vertex="1" connectable="0" parent="4suOuSQ61Tq4zbovz8dJ-8">
          <mxGeometry x="-0.1556" relative="1" as="geometry">
            <mxPoint as="offset" />
          </mxGeometry>
        </mxCell>
        <mxCell id="4suOuSQ61Tq4zbovz8dJ-2" value="查出工单集合，遍历每条记录" style="whiteSpace=wrap;html=1;rounded=0;" vertex="1" parent="1">
          <mxGeometry x="225" y="220" width="120" height="60" as="geometry" />
        </mxCell>
        <mxCell id="4suOuSQ61Tq4zbovz8dJ-19" style="edgeStyle=orthogonalEdgeStyle;rounded=0;orthogonalLoop=1;jettySize=auto;html=1;entryX=0.5;entryY=0;entryDx=0;entryDy=0;" edge="1" parent="1" source="4suOuSQ61Tq4zbovz8dJ-7" target="4suOuSQ61Tq4zbovz8dJ-14">
          <mxGeometry relative="1" as="geometry" />
        </mxCell>
        <mxCell id="4suOuSQ61Tq4zbovz8dJ-7" value="查产线当前时间所在班次最新一条扫码记录的工单" style="whiteSpace=wrap;html=1;rounded=0;" vertex="1" parent="1">
          <mxGeometry x="157.5" y="370" width="255" height="60" as="geometry" />
        </mxCell>
        <mxCell id="4suOuSQ61Tq4zbovz8dJ-18" style="edgeStyle=orthogonalEdgeStyle;rounded=0;orthogonalLoop=1;jettySize=auto;html=1;" edge="1" parent="1" source="4suOuSQ61Tq4zbovz8dJ-9">
          <mxGeometry relative="1" as="geometry">
            <mxPoint x="350" y="250" as="targetPoint" />
          </mxGeometry>
        </mxCell>
        <mxCell id="4suOuSQ61Tq4zbovz8dJ-9" value="排除掉COLSED，CANCELLED状态" style="rhombus;whiteSpace=wrap;html=1;" vertex="1" parent="1">
          <mxGeometry x="490" y="190" width="130" height="120" as="geometry" />
        </mxCell>
        <mxCell id="4suOuSQ61Tq4zbovz8dJ-11" style="edgeStyle=orthogonalEdgeStyle;rounded=0;orthogonalLoop=1;jettySize=auto;html=1;entryX=1;entryY=0.5;entryDx=0;entryDy=0;" edge="1" parent="1" source="4suOuSQ61Tq4zbovz8dJ-10" target="4suOuSQ61Tq4zbovz8dJ-7">
          <mxGeometry relative="1" as="geometry" />
        </mxCell>
        <mxCell id="4suOuSQ61Tq4zbovz8dJ-10" value="生产中工单" style="rhombus;whiteSpace=wrap;html=1;" vertex="1" parent="1">
          <mxGeometry x="500" y="340" width="130" height="120" as="geometry" />
        </mxCell>
        <mxCell id="4suOuSQ61Tq4zbovz8dJ-16" value="" style="edgeStyle=orthogonalEdgeStyle;rounded=0;orthogonalLoop=1;jettySize=auto;html=1;" edge="1" parent="1" source="4suOuSQ61Tq4zbovz8dJ-14" target="4suOuSQ61Tq4zbovz8dJ-15">
          <mxGeometry relative="1" as="geometry" />
        </mxCell>
        <mxCell id="4suOuSQ61Tq4zbovz8dJ-14" value="有记录" style="rhombus;whiteSpace=wrap;html=1;" vertex="1" parent="1">
          <mxGeometry x="245" y="510" width="80" height="80" as="geometry" />
        </mxCell>
        <mxCell id="4suOuSQ61Tq4zbovz8dJ-21" value="" style="edgeStyle=orthogonalEdgeStyle;rounded=0;orthogonalLoop=1;jettySize=auto;html=1;" edge="1" parent="1" source="4suOuSQ61Tq4zbovz8dJ-15" target="4suOuSQ61Tq4zbovz8dJ-20">
          <mxGeometry relative="1" as="geometry" />
        </mxCell>
        <mxCell id="4suOuSQ61Tq4zbovz8dJ-29" value="计划上线时间" style="edgeLabel;html=1;align=center;verticalAlign=middle;resizable=0;points=[];" vertex="1" connectable="0" parent="4suOuSQ61Tq4zbovz8dJ-21">
          <mxGeometry x="-0.0824" y="-2" relative="1" as="geometry">
            <mxPoint as="offset" />
          </mxGeometry>
        </mxCell>
        <mxCell id="4suOuSQ61Tq4zbovz8dJ-15" value="根据工单号查工单表" style="whiteSpace=wrap;html=1;" vertex="1" parent="1">
          <mxGeometry x="225" y="680" width="120" height="60" as="geometry" />
        </mxCell>
        <mxCell id="4suOuSQ61Tq4zbovz8dJ-23" value="" style="edgeStyle=orthogonalEdgeStyle;rounded=0;orthogonalLoop=1;jettySize=auto;html=1;" edge="1" parent="1" source="4suOuSQ61Tq4zbovz8dJ-20" target="4suOuSQ61Tq4zbovz8dJ-22">
          <mxGeometry relative="1" as="geometry" />
        </mxCell>
        <mxCell id="4suOuSQ61Tq4zbovz8dJ-27" style="edgeStyle=orthogonalEdgeStyle;rounded=0;orthogonalLoop=1;jettySize=auto;html=1;entryX=0.5;entryY=0;entryDx=0;entryDy=0;exitX=0;exitY=0.5;exitDx=0;exitDy=0;" edge="1" parent="1" source="4suOuSQ61Tq4zbovz8dJ-2">
          <mxGeometry relative="1" as="geometry">
            <mxPoint x="220" y="710" as="sourcePoint" />
            <mxPoint x="50" y="805" as="targetPoint" />
            <Array as="points">
              <mxPoint x="50" y="250" />
            </Array>
          </mxGeometry>
        </mxCell>
        <mxCell id="4suOuSQ61Tq4zbovz8dJ-20" value="比较工单集合工单计划上线时间和生产中工单的计划上线时间" style="whiteSpace=wrap;html=1;" vertex="1" parent="1">
          <mxGeometry x="195" y="825" width="180" height="60" as="geometry" />
        </mxCell>
        <mxCell id="4suOuSQ61Tq4zbovz8dJ-25" value="" style="edgeStyle=orthogonalEdgeStyle;rounded=0;orthogonalLoop=1;jettySize=auto;html=1;" edge="1" parent="1" source="4suOuSQ61Tq4zbovz8dJ-22" target="4suOuSQ61Tq4zbovz8dJ-24">
          <mxGeometry relative="1" as="geometry" />
        </mxCell>
        <mxCell id="4suOuSQ61Tq4zbovz8dJ-22" value="小于" style="rhombus;whiteSpace=wrap;html=1;" vertex="1" parent="1">
          <mxGeometry x="245" y="980" width="80" height="80" as="geometry" />
        </mxCell>
        <mxCell id="4suOuSQ61Tq4zbovz8dJ-24" value="尾数" style="whiteSpace=wrap;html=1;" vertex="1" parent="1">
          <mxGeometry x="225" y="1200" width="120" height="60" as="geometry" />
        </mxCell>
        <mxCell id="4suOuSQ61Tq4zbovz8dJ-28" style="edgeStyle=orthogonalEdgeStyle;rounded=0;orthogonalLoop=1;jettySize=auto;html=1;entryX=0.5;entryY=0;entryDx=0;entryDy=0;" edge="1" parent="1" target="4suOuSQ61Tq4zbovz8dJ-24">
          <mxGeometry relative="1" as="geometry">
            <mxPoint x="150" y="1060" as="sourcePoint" />
            <mxPoint x="285" y="1160" as="targetPoint" />
            <Array as="points">
              <mxPoint x="150" y="1115" />
              <mxPoint x="285" y="1115" />
            </Array>
          </mxGeometry>
        </mxCell>
        <mxCell id="4suOuSQ61Tq4zbovz8dJ-26" value="不等于&lt;br&gt;已完工" style="rhombus;whiteSpace=wrap;html=1;" vertex="1" parent="1">
          <mxGeometry x="110" y="990" width="80" height="80" as="geometry" />
        </mxCell>
        <mxCell id="4suOuSQ61Tq4zbovz8dJ-39" style="edgeStyle=orthogonalEdgeStyle;rounded=0;orthogonalLoop=1;jettySize=auto;html=1;entryX=0.5;entryY=0;entryDx=0;entryDy=0;" edge="1" parent="1" source="4suOuSQ61Tq4zbovz8dJ-31" target="4suOuSQ61Tq4zbovz8dJ-32">
          <mxGeometry relative="1" as="geometry" />
        </mxCell>
        <mxCell id="4suOuSQ61Tq4zbovz8dJ-31" value="COMPLETED" style="rhombus;whiteSpace=wrap;html=1;" vertex="1" parent="1">
          <mxGeometry x="5" y="990" width="90" height="80" as="geometry" />
        </mxCell>
        <mxCell id="4suOuSQ61Tq4zbovz8dJ-32" value="已完工" style="rounded=0;whiteSpace=wrap;html=1;" vertex="1" parent="1">
          <mxGeometry x="-10" y="1200" width="120" height="60" as="geometry" />
        </mxCell>
        <mxCell id="4suOuSQ61Tq4zbovz8dJ-34" style="edgeStyle=orthogonalEdgeStyle;rounded=0;orthogonalLoop=1;jettySize=auto;html=1;entryX=0.5;entryY=0;entryDx=0;entryDy=0;" edge="1" parent="1" source="4suOuSQ61Tq4zbovz8dJ-33" target="4suOuSQ61Tq4zbovz8dJ-31">
          <mxGeometry relative="1" as="geometry" />
        </mxCell>
        <mxCell id="4suOuSQ61Tq4zbovz8dJ-35" style="edgeStyle=orthogonalEdgeStyle;rounded=0;orthogonalLoop=1;jettySize=auto;html=1;" edge="1" parent="1" source="4suOuSQ61Tq4zbovz8dJ-33" target="4suOuSQ61Tq4zbovz8dJ-26">
          <mxGeometry relative="1" as="geometry" />
        </mxCell>
        <mxCell id="4suOuSQ61Tq4zbovz8dJ-37" style="edgeStyle=orthogonalEdgeStyle;rounded=0;orthogonalLoop=1;jettySize=auto;html=1;entryX=0.5;entryY=0;entryDx=0;entryDy=0;" edge="1" parent="1" target="4suOuSQ61Tq4zbovz8dJ-36">
          <mxGeometry relative="1" as="geometry">
            <mxPoint x="-10" y="845" as="sourcePoint" />
          </mxGeometry>
        </mxCell>
        <mxCell id="4suOuSQ61Tq4zbovz8dJ-33" value="取出工单状态" style="ellipse;whiteSpace=wrap;html=1;aspect=fixed;" vertex="1" parent="1">
          <mxGeometry x="10" y="805" width="80" height="80" as="geometry" />
        </mxCell>
        <mxCell id="4suOuSQ61Tq4zbovz8dJ-43" style="edgeStyle=orthogonalEdgeStyle;rounded=0;orthogonalLoop=1;jettySize=auto;html=1;" edge="1" parent="1" source="4suOuSQ61Tq4zbovz8dJ-36">
          <mxGeometry relative="1" as="geometry">
            <mxPoint x="-85" y="1200" as="targetPoint" />
          </mxGeometry>
        </mxCell>
        <mxCell id="4suOuSQ61Tq4zbovz8dJ-36" value="都不是" style="rhombus;whiteSpace=wrap;html=1;" vertex="1" parent="1">
          <mxGeometry x="-130" y="990" width="90" height="80" as="geometry" />
        </mxCell>
        <mxCell id="4suOuSQ61Tq4zbovz8dJ-38" value="待生产" style="rounded=0;whiteSpace=wrap;html=1;" vertex="1" parent="1">
          <mxGeometry x="-145" y="1200" width="120" height="60" as="geometry" />
        </mxCell>
        <mxCell id="4suOuSQ61Tq4zbovz8dJ-46" value="&lt;font color=&quot;#fc1c14&quot;&gt;多个产线查出多个班次，查工单集合怎么查？取哪一条班次？还是代入每个产线每个班次单独查一次工单集合？&lt;/font&gt;" style="text;html=1;strokeColor=none;fillColor=none;align=center;verticalAlign=middle;whiteSpace=wrap;rounded=0;" vertex="1" parent="1">
          <mxGeometry x="400" y="30" width="370" height="220" as="geometry" />
        </mxCell>
      </root>
    </mxGraphModel>
  </diagram>
</mxfile>
